<svg xmlns="http://www.w3.org/2000/svg" xmlns:xlink="http://www.w3.org/1999/xlink" width="558.263" height="574.42" viewBox="0 0 558.263 574.42">
  <defs>
    <linearGradient id="linear-gradient" x1="-0.055" y1="0.454" x2="1.039" y2="0.5" gradientUnits="objectBoundingBox">
      <stop offset="0" stop-color="#3680f7"/>
      <stop offset="1" stop-color="#f0ad47"/>
    </linearGradient>
  </defs>
  <g id="Check" transform="translate(-221.5 -211.08)">
    <g id="Group_14" data-name="Group 14">
      <path id="Path_11" data-name="Path 11" d="M708.28,350.45,682.3,379.49A231.727,231.727,0,0,1,725.5,514.5c0,128.48-104.52,233-233,233s-233-104.52-233-233,104.52-233,233-233a231.535,231.535,0,0,1,107.16,26.14l23.58-30.66a271.172,271.172,0,1,0,85.04,73.47Z" fill="url(#linear-gradient)"/>
    </g>
    <path id="Path_12" data-name="Path 12" d="M499.8,477.865q64.494-96.106,135.152-187.879c17.066-22.164,34.785-44.5,57.956-60.168s53.012-23.924,79.584-15.18a13.929,13.929,0,0,1,4.1,1.92c6.646,5.011,1.608,15.471-3.72,21.867A4758.081,4758.081,0,0,0,473.112,639.406c-7.588,11.351-15.824,23.33-28.384,28.683-9.716,4.14-20.686,3.7-31.236,3.2-11.627-.56-24.047-1.4-33.306-8.452-6.944-5.292-11.111-13.378-14.728-21.325-12.778-28.07-21.51-57.8-30.175-87.327-3.018-10.283-6.068-20.894-4.909-31.547,2.3-21.163,28.616-35.125,47.511-38.962,10.66-2.165,22.826-.139,30.209,7.849,4.878,5.279,7.1,12.4,9.384,19.22a379.9,379.9,0,0,0,16.3,40.724c1.257,2.682,2.769,5.567,5.506,6.7,5.257,2.176,10.295-3.338,13.351-8.138Q475.777,513.661,499.8,477.865Z" fill="url(#linear-gradient)"/>
  </g>
</svg>
