<svg xmlns="http://www.w3.org/2000/svg" width="46" height="46" viewBox="0 0 46 46">
  <g id="Group_1174" data-name="Group 1174" transform="translate(-10624.23 1187.77)">
    <rect id="Rectangle_678" data-name="Rectangle 678" width="46" height="46" rx="5" transform="translate(10624.23 -1187.77)" fill="#0077b5"/>
    <path id="Icon_awesome-linkedin-in" data-name="Icon awesome-linkedin-in" d="M6.091,27.213H.449V9.045H6.091ZM3.267,6.566a3.283,3.283,0,1,1,3.267-3.3A3.3,3.3,0,0,1,3.267,6.566ZM27.207,27.213h-5.63V18.369c0-2.108-.043-4.811-2.933-4.811-2.933,0-3.383,2.29-3.383,4.659v9H9.625V9.045h5.411v2.478h.079a5.928,5.928,0,0,1,5.338-2.934c5.71,0,6.759,3.76,6.759,8.644v9.98Z" transform="translate(10632.935 -1179.066)" fill="#fff"/>
  </g>
</svg>
